<svg width="24" height="26" viewBox="0 0 24 26" fill="none" xmlns="http://www.w3.org/2000/svg">
<path d="M19.7433 3.211C19.6367 3.211 19.5367 3.185 19.4367 3.1395C16.8841 1.8525 14.6648 1.3 12.0122 1.3C9.3663 1.3 6.87369 1.9175 4.58769 3.133C4.26112 3.302 3.86124 3.1915 3.68129 2.873C3.508 2.5545 3.6213 2.1645 3.94788 1.989C6.43382 0.6695 9.14637 0 12.0122 0C14.8514 0 17.3307 0.611 20.0499 1.9825C20.3764 2.145 20.5031 2.5415 20.3364 2.86C20.2165 3.081 19.9832 3.211 19.7433 3.211ZM0.668829 10.036C0.535535 10.036 0.40224 9.997 0.282275 9.919C-0.0176379 9.711 -0.0909501 9.308 0.122321 9.0155C1.44194 7.1955 3.12811 5.7655 5.12753 4.758C9.31965 2.6455 14.6781 2.639 18.8769 4.745C20.8696 5.746 22.5491 7.163 23.8754 8.97C24.0887 9.2625 24.022 9.6655 23.7221 9.8735C23.4222 10.0815 23.0023 10.0165 22.7891 9.724C21.5894 8.086 20.0699 6.799 18.2704 5.902C14.4448 3.9845 9.55958 3.991 5.74069 5.915C3.93455 6.825 2.40832 8.1185 1.21534 9.7695C1.08204 9.945 0.875436 10.036 0.668829 10.036ZM9.00641 25.7205C8.83312 25.7205 8.6665 25.6555 8.53321 25.5255C7.38021 24.388 6.75373 23.6665 5.85399 22.1C4.93426 20.501 4.44773 18.5445 4.44773 16.4515C4.44773 12.5905 7.83342 9.4445 11.9989 9.4445C16.1643 9.4445 19.55 12.584 19.55 16.4515C19.55 16.809 19.2501 17.1015 18.8835 17.1015C18.517 17.1015 18.2171 16.809 18.2171 16.4515C18.2171 13.3055 15.4312 10.7445 11.9989 10.7445C8.5732 10.7445 5.78068 13.3055 5.78068 16.4515C5.78068 18.3235 6.20722 20.0525 7.01365 21.463C7.8734 22.958 8.44657 23.6015 9.47294 24.609C9.73286 24.8625 9.73286 25.2785 9.46627 25.5255C9.34631 25.662 9.17303 25.7205 9.00641 25.7205ZM18.557 23.3155C16.9708 23.3155 15.5778 22.9255 14.4248 22.165C12.4454 20.852 11.2591 18.72 11.2591 16.458C11.2591 16.1005 11.559 15.808 11.9256 15.808C12.2921 15.808 12.592 16.1005 12.592 16.458C12.592 18.2845 13.5584 20.0135 15.1779 21.086C16.1177 21.71 17.224 22.0155 18.557 22.0155C18.8769 22.0155 19.4167 21.983 19.9499 21.892C20.3098 21.827 20.6564 22.0675 20.723 22.4185C20.7896 22.7695 20.5431 23.1075 20.1832 23.1725C19.4034 23.309 18.7436 23.3155 18.557 23.3155ZM15.8711 26C15.8111 26 15.7511 25.9935 15.6978 25.974C13.5717 25.4085 12.1855 24.6415 10.7459 23.244C8.88644 21.437 7.86007 19.0255 7.86007 16.458C7.86007 14.3455 9.69954 12.6295 11.9655 12.6295C14.2316 12.6295 16.071 14.3455 16.071 16.458C16.071 17.849 17.3173 18.9865 18.8435 18.9865C20.3698 18.9865 21.6161 17.8555 21.6161 16.458C21.6161 11.557 17.284 7.5725 11.9589 7.5725C8.16665 7.5725 4.70766 9.6265 3.14811 12.8115C2.62826 13.8645 2.36834 15.093 2.36834 16.458C2.36834 17.472 2.46164 19.071 3.25474 21.1445C3.38137 21.4825 3.20809 21.853 2.86153 21.983C2.51496 22.1065 2.13507 21.9375 2.00178 21.5995C1.34863 19.89 1.02872 18.213 1.02872 16.458C1.02872 14.898 1.3353 13.481 1.94179 12.2525C3.72128 8.6255 7.65347 6.279 11.9522 6.279C18.0105 6.279 22.9424 10.8485 22.9424 16.4645C22.9424 18.577 21.0962 20.293 18.8369 20.293C16.5775 20.293 14.7314 18.577 14.7314 16.4645C14.7314 15.0735 13.4851 13.936 11.9589 13.936C10.4327 13.936 9.18635 15.067 9.18635 16.4645C9.18635 18.681 10.0728 20.7675 11.679 22.3275C12.9386 23.5495 14.1649 24.2255 16.0444 24.726C16.3976 24.8235 16.6109 25.181 16.5109 25.5255C16.4309 25.8115 16.1643 26 15.8711 26Z" fill="#EEDC3E"/>
</svg>
