<svg width="14" height="14" viewBox="0 0 14 14" fill="none" xmlns="http://www.w3.org/2000/svg">
<g clip-path="url(#clip0)">
<path d="M13.4873 4.32204C13.4568 3.6313 13.3451 3.15642 13.1851 2.74493C13.02 2.30815 12.7661 1.91709 12.4334 1.59201C12.1083 1.26187 11.7147 1.00533 11.2829 0.84284C10.8691 0.682828 10.3967 0.571127 9.70593 0.540673C9.01003 0.507639 8.78911 0.5 7.02412 0.5C5.25913 0.5 5.03821 0.507639 4.34489 0.538093C3.65415 0.568548 3.17927 0.680348 2.76788 0.840261C2.331 1.00533 1.93995 1.25929 1.61487 1.59201C1.28472 1.91709 1.02829 2.31073 0.865698 2.74245C0.705686 3.15642 0.593985 3.62872 0.56353 4.31946C0.530496 5.01536 0.522858 5.23628 0.522858 7.00127C0.522858 8.76626 0.530496 8.98719 0.560951 9.6805C0.591406 10.3712 0.703206 10.8461 0.863217 11.2576C1.02829 11.6944 1.28472 12.0854 1.61487 12.4105C1.93995 12.7407 2.33358 12.9972 2.7653 13.1597C3.17927 13.3197 3.65157 13.4314 4.34241 13.4619C5.03563 13.4924 5.25665 13.5 7.02164 13.5C8.78663 13.5 9.00755 13.4924 9.70087 13.4619C10.3916 13.4314 10.8665 13.3197 11.2779 13.1597C12.1515 12.8219 12.8423 12.1312 13.1801 11.2576C13.34 10.8436 13.4518 10.3712 13.4822 9.6805C13.5127 8.98719 13.5203 8.76626 13.5203 7.00127C13.5203 5.23628 13.5177 5.01536 13.4873 4.32204ZM12.3166 9.62971C12.2886 10.2646 12.182 10.6074 12.0931 10.836C11.8747 11.4023 11.4252 11.8518 10.8588 12.0703C10.6303 12.1592 10.285 12.2658 9.65256 12.2937C8.96688 12.3242 8.76123 12.3318 7.0267 12.3318C5.29216 12.3318 5.08394 12.3242 4.40074 12.2937C3.76585 12.2658 3.42301 12.1592 3.19445 12.0703C2.91262 11.9661 2.65608 11.801 2.44786 11.5852C2.232 11.3744 2.06693 11.1204 1.96277 10.8386C1.87388 10.61 1.76724 10.2646 1.73936 9.63229C1.70881 8.94661 1.70127 8.74087 1.70127 7.00633C1.70127 5.27179 1.70881 5.06357 1.73936 4.38047C1.76724 3.74558 1.87388 3.40274 1.96277 3.17418C2.06693 2.89224 2.232 2.63581 2.45044 2.42749C2.66114 2.21162 2.9151 2.04655 3.19703 1.94249C3.42559 1.8536 3.77101 1.74696 4.40332 1.71899C5.089 1.68853 5.29474 1.68089 7.02918 1.68089C8.76629 1.68089 8.97194 1.68853 9.65514 1.71899C10.29 1.74696 10.6329 1.8536 10.8614 1.94249C11.1433 2.04655 11.3998 2.21162 11.608 2.42749C11.8239 2.63829 11.9889 2.89224 12.0931 3.17418C12.182 3.40274 12.2886 3.74806 12.3166 4.38047C12.3471 5.06615 12.3547 5.27179 12.3547 7.00633C12.3547 8.74087 12.3471 8.94403 12.3166 9.62971Z" fill="white" fill-opacity="0.6"/>
<path d="M7.02412 3.66211C5.18046 3.66211 3.6846 5.15787 3.6846 7.00163C3.6846 8.84539 5.18046 10.3412 7.02412 10.3412C8.86788 10.3412 10.3636 8.84539 10.3636 7.00163C10.3636 5.15787 8.86788 3.66211 7.02412 3.66211ZM7.02412 9.16789C5.82805 9.16789 4.85786 8.1978 4.85786 7.00163C4.85786 5.80546 5.82805 4.83537 7.02412 4.83537C8.22029 4.83537 9.19038 5.80546 9.19038 7.00163C9.19038 8.1978 8.22029 9.16789 7.02412 9.16789Z" fill="white" fill-opacity="0.6"/>
<path d="M11.2754 3.52963C11.2754 3.96016 10.9263 4.30925 10.4956 4.30925C10.0651 4.30925 9.716 3.96016 9.716 3.52963C9.716 3.09899 10.0651 2.75 10.4956 2.75C10.9263 2.75 11.2754 3.09899 11.2754 3.52963Z" fill="white" fill-opacity="0.6"/>
</g>
<defs>
<clipPath id="clip0">
<rect width="13" height="13" fill="white" transform="translate(0.5 0.5)"/>
</clipPath>
</defs>
</svg>
