<svg width="14" height="8" viewBox="0 0 14 8" fill="none" xmlns="http://www.w3.org/2000/svg">
<path d="M13.3841 6.90713C13.3492 6.84863 13.133 6.37897 12.093 5.41365C11.0041 4.40282 11.1504 4.56696 12.4619 2.81914C13.2606 1.75469 13.5799 1.10464 13.48 0.826745C13.3849 0.56185 12.7975 0.63173 12.7975 0.63173L10.8441 0.643106C10.8441 0.643106 10.6994 0.623605 10.5914 0.687797C10.4865 0.751177 10.4191 0.897438 10.4191 0.897438C10.4191 0.897438 10.1095 1.72137 9.69673 2.4218C8.82648 3.89985 8.47789 3.97785 8.33569 3.88603C8.00498 3.67233 8.08786 3.02635 8.08786 2.56806C8.08786 1.13552 8.30481 0.538286 7.66452 0.383899C7.45163 0.332708 7.29561 0.298581 6.75201 0.292893C6.05484 0.28558 5.46411 0.29533 5.13014 0.458655C4.9075 0.567538 4.73605 0.810494 4.84087 0.824307C4.97007 0.841371 5.26259 0.903126 5.41779 1.11439C5.61849 1.3866 5.61118 1.99927 5.61118 1.99927C5.61118 1.99927 5.72656 3.68533 5.34222 3.89497C5.07814 4.0388 4.71655 3.74546 3.94056 2.40392C3.54322 1.71731 3.24257 0.957567 3.24257 0.957567C3.24257 0.957567 3.18488 0.816182 3.08168 0.740613C2.95655 0.648794 2.78104 0.619542 2.78104 0.619542L0.923525 0.630918C0.923525 0.630918 0.644817 0.639044 0.542434 0.760115C0.451428 0.868186 0.535121 1.09083 0.535121 1.09083C0.535121 1.09083 1.9896 4.49302 3.63585 6.20833C5.1464 7.78064 6.8609 7.67744 6.8609 7.67744H7.6377C7.6377 7.67744 7.87253 7.65144 7.99198 7.52224C8.10249 7.40361 8.09842 7.18097 8.09842 7.18097C8.09842 7.18097 8.08298 6.13845 8.56727 5.98488C9.04424 5.83374 9.65691 6.99245 10.3061 7.43855C10.7969 7.77576 11.1699 7.70182 11.1699 7.70182L12.9063 7.67744C12.9063 7.67744 13.8148 7.62137 13.3841 6.90713Z" fill="#8D56C4"/>
</svg>
