<svg width="14" height="14" viewBox="0 0 14 14" fill="none" xmlns="http://www.w3.org/2000/svg">
<g clip-path="url(#clip0)">
<path d="M13.4873 4.32204C13.4568 3.6313 13.3451 3.15642 13.1851 2.74493C13.02 2.30815 12.7661 1.91709 12.4333 1.59201C12.1083 1.26187 11.7146 1.00533 11.2829 0.84284C10.869 0.682828 10.3966 0.571127 9.7059 0.540673C9.01 0.507639 8.78908 0.5 7.02409 0.5C5.2591 0.5 5.03818 0.507639 4.34486 0.538093C3.65412 0.568548 3.17924 0.680348 2.76785 0.840261C2.33097 1.00533 1.93992 1.25929 1.61484 1.59201C1.28469 1.91709 1.02826 2.31073 0.865667 2.74245C0.705655 3.15642 0.593955 3.62872 0.5635 4.31946C0.530466 5.01536 0.522827 5.23628 0.522827 7.00127C0.522827 8.76626 0.530466 8.98719 0.56092 9.6805C0.591375 10.3712 0.703175 10.8461 0.863187 11.2576C1.02826 11.6944 1.28469 12.0854 1.61484 12.4105C1.93992 12.7407 2.33355 12.9972 2.76527 13.1597C3.17924 13.3197 3.65154 13.4314 4.34238 13.4619C5.0356 13.4924 5.25662 13.5 7.02161 13.5C8.7866 13.5 9.00752 13.4924 9.70084 13.4619C10.3916 13.4314 10.8665 13.3197 11.2778 13.1597C12.1515 12.8219 12.8422 12.1312 13.18 11.2576C13.3399 10.8436 13.4517 10.3712 13.4822 9.6805C13.5126 8.98719 13.5203 8.76626 13.5203 7.00127C13.5203 5.23628 13.5177 5.01536 13.4873 4.32204ZM12.3166 9.62971C12.2886 10.2646 12.182 10.6074 12.0931 10.836C11.8746 11.4023 11.4252 11.8518 10.8588 12.0703C10.6303 12.1592 10.2849 12.2658 9.65253 12.2937C8.96685 12.3242 8.7612 12.3318 7.02667 12.3318C5.29213 12.3318 5.08391 12.3242 4.40071 12.2937C3.76582 12.2658 3.42298 12.1592 3.19442 12.0703C2.91259 11.9661 2.65605 11.801 2.44783 11.5852C2.23197 11.3744 2.0669 11.1204 1.96273 10.8386C1.87385 10.61 1.76721 10.2646 1.73933 9.63229C1.70878 8.94661 1.70124 8.74087 1.70124 7.00633C1.70124 5.27179 1.70878 5.06357 1.73933 4.38047C1.76721 3.74558 1.87385 3.40274 1.96273 3.17418C2.0669 2.89224 2.23197 2.63581 2.45041 2.42749C2.66111 2.21162 2.91507 2.04655 3.197 1.94249C3.42556 1.8536 3.77098 1.74696 4.40329 1.71899C5.08897 1.68853 5.29471 1.68089 7.02915 1.68089C8.76626 1.68089 8.97191 1.68853 9.65511 1.71899C10.29 1.74696 10.6328 1.8536 10.8614 1.94249C11.1432 2.04655 11.3998 2.21162 11.608 2.42749C11.8238 2.63829 11.9889 2.89224 12.0931 3.17418C12.182 3.40274 12.2886 3.74806 12.3166 4.38047C12.347 5.06615 12.3547 5.27179 12.3547 7.00633C12.3547 8.74087 12.347 8.94403 12.3166 9.62971Z" fill="#8D56C4"/>
<path d="M7.02409 3.66168C5.18043 3.66168 3.68457 5.15744 3.68457 7.0012C3.68457 8.84496 5.18043 10.3407 7.02409 10.3407C8.86785 10.3407 10.3636 8.84496 10.3636 7.0012C10.3636 5.15744 8.86785 3.66168 7.02409 3.66168ZM7.02409 9.16747C5.82802 9.16747 4.85783 8.19737 4.85783 7.0012C4.85783 5.80503 5.82802 4.83494 7.02409 4.83494C8.22026 4.83494 9.19035 5.80503 9.19035 7.0012C9.19035 8.19737 8.22026 9.16747 7.02409 9.16747Z" fill="#8D56C4"/>
<path d="M11.2754 3.52969C11.2754 3.96022 10.9263 4.30931 10.4956 4.30931C10.0651 4.30931 9.716 3.96022 9.716 3.52969C9.716 3.09905 10.0651 2.75006 10.4956 2.75006C10.9263 2.75006 11.2754 3.09905 11.2754 3.52969Z" fill="#8D56C4"/>
</g>
<defs>
<clipPath id="clip0">
<rect width="13" height="13" fill="white" transform="translate(0.5 0.5)"/>
</clipPath>
</defs>
</svg>
