<svg width="14" height="14" viewBox="0 0 14 14" fill="none" xmlns="http://www.w3.org/2000/svg">
<g clip-path="url(#clip0)">
<path d="M13.3841 9.90695C13.3492 9.84845 13.133 9.37879 12.0929 8.41346C11.0041 7.40264 11.1504 7.56678 12.4619 5.81896C13.2606 4.75451 13.5799 4.10446 13.48 3.82656C13.3849 3.56167 12.7974 3.63155 12.7974 3.63155L10.844 3.64292C10.844 3.64292 10.6994 3.62342 10.5913 3.68761C10.4865 3.75099 10.4191 3.89725 10.4191 3.89725C10.4191 3.89725 10.1095 4.72119 9.69671 5.42162C8.82646 6.89966 8.47787 6.97767 8.33568 6.88585C8.00496 6.67215 8.08785 6.02616 8.08785 5.56788C8.08785 4.13533 8.3048 3.5381 7.6645 3.38372C7.45161 3.33253 7.2956 3.2984 6.752 3.29271C6.05482 3.2854 5.46409 3.29515 5.13013 3.45847C4.90749 3.56735 4.73604 3.81031 4.84086 3.82412C4.97005 3.84119 5.26258 3.90294 5.41778 4.11421C5.61848 4.38642 5.61116 4.99909 5.61116 4.99909C5.61116 4.99909 5.72655 6.68515 5.34221 6.89479C5.07813 7.03861 4.71654 6.74528 3.94054 5.40374C3.5432 4.71713 3.24255 3.95738 3.24255 3.95738C3.24255 3.95738 3.18486 3.816 3.08167 3.74043C2.95653 3.64861 2.78102 3.61936 2.78102 3.61936L0.92351 3.63073C0.92351 3.63073 0.644802 3.63886 0.542419 3.75993C0.451413 3.868 0.535106 4.09064 0.535106 4.09064C0.535106 4.09064 1.98959 7.49283 3.63583 9.20815C5.14638 10.7805 6.86088 10.6773 6.86088 10.6773H7.63769C7.63769 10.6773 7.87252 10.6513 7.99196 10.5221C8.10247 10.4034 8.09841 10.1808 8.09841 10.1808C8.09841 10.1808 8.08297 9.13827 8.56726 8.98469C9.04423 8.83356 9.6569 9.99227 10.3061 10.4384C10.7969 10.7756 11.1699 10.7016 11.1699 10.7016L12.9063 10.6773C12.9063 10.6773 13.8148 10.6212 13.3841 9.90695Z" fill="white" fill-opacity="0.6"/>
</g>
<defs>
<clipPath id="clip0">
<rect width="13" height="13" fill="white" transform="translate(0.5 0.5)"/>
</clipPath>
</defs>
</svg>
