<svg width="28" height="28" viewBox="0 0 28 28" fill="none" xmlns="http://www.w3.org/2000/svg">
    <path d="M14 1L1 14L14 27L27 14L14 1Z" stroke="black" stroke-miterlimit="10"/>
    <path d="M15.1817 9.2727C15.8344 8.62 15.8344 7.56176 15.1817 6.90906C14.529 6.25636 13.4707 6.25636 12.818 6.90906C12.1653 7.56176 12.1653 8.62 12.818 9.2727C13.4707 9.9254 14.529 9.9254 15.1817 9.2727Z" stroke="black" stroke-miterlimit="10"/>
    <path d="M9.27263 15.1818C9.92533 14.5291 9.92533 13.4709 9.27263 12.8182C8.61993 12.1655 7.56169 12.1655 6.90899 12.8182C6.25629 13.4709 6.25629 14.5291 6.90899 15.1818C7.56169 15.8345 8.61993 15.8345 9.27263 15.1818Z" stroke="black" stroke-miterlimit="10"/>
    <path d="M20.4999 14.5909C21.1526 13.9382 21.1526 12.88 20.4999 12.2273C19.8472 11.5746 18.789 11.5746 18.1363 12.2273C17.4836 12.88 17.4836 13.9382 18.1363 14.5909C18.789 15.2436 19.8472 15.2436 20.4999 14.5909Z" stroke="black" stroke-miterlimit="10"/>
    <path d="M14.5909 20.5C15.2436 19.8473 15.2436 18.7891 14.5909 18.1364C13.9382 17.4837 12.8799 17.4837 12.2272 18.1364C11.5745 18.7891 11.5745 19.8473 12.2272 20.5C12.8799 21.1527 13.9382 21.1527 14.5909 20.5Z" stroke="black" stroke-miterlimit="10"/>
    <path d="M23.1924 4.80759H4.80762V23.1924H23.1924V4.80759Z" stroke="black" stroke-miterlimit="10"/>
    <path d="M18.1783 11.493C19.1014 11.493 19.8496 10.7447 19.8496 9.82161C19.8496 8.89855 19.1014 8.15027 18.1783 8.15027C17.2552 8.15027 16.507 8.89855 16.507 9.82161C16.507 10.7447 17.2552 11.493 18.1783 11.493Z" stroke="black" stroke-miterlimit="10"/>
    <path d="M9.82161 11.493C10.7447 11.493 11.493 10.7447 11.493 9.82161C11.493 8.89855 10.7447 8.15027 9.82161 8.15027C8.89855 8.15027 8.15027 8.89855 8.15027 9.82161C8.15027 10.7447 8.89855 11.493 9.82161 11.493Z" stroke="black" stroke-miterlimit="10"/>
    <path d="M18.1783 19.014C19.1014 19.014 19.8496 18.2658 19.8496 17.3427C19.8496 16.4196 19.1014 15.6714 18.1783 15.6714C17.2552 15.6714 16.507 16.4196 16.507 17.3427C16.507 18.2658 17.2552 19.014 18.1783 19.014Z" stroke="black" stroke-miterlimit="10"/>
    <path d="M13.7276 14.7067C14.2683 14.7067 14.7066 14.2684 14.7066 13.7276C14.7066 13.1869 14.2683 12.7486 13.7276 12.7486C13.1869 12.7486 12.7485 13.1869 12.7485 13.7276C12.7485 14.2684 13.1869 14.7067 13.7276 14.7067Z" stroke="black" stroke-miterlimit="10"/>
    <path d="M9.82161 19.014C10.7447 19.014 11.493 18.2658 11.493 17.3427C11.493 16.4196 10.7447 15.6714 9.82161 15.6714C8.89855 15.6714 8.15027 16.4196 8.15027 17.3427C8.15027 18.2658 8.89855 19.014 9.82161 19.014Z" stroke="black" stroke-miterlimit="10"/>
</svg>
