<svg width="42" height="42" viewBox="0 0 42 42" fill="none" xmlns="http://www.w3.org/2000/svg">
<path d="M21.3988 1.60125L2 21L21.3988 40.3988L40.7975 21L21.3988 1.60125Z" stroke="white" stroke-width="1.49221" stroke-miterlimit="10"/>
<path d="M23.2906 14.7635C24.2645 13.7896 24.2645 12.2104 23.2906 11.2365C22.3166 10.2625 20.7375 10.2625 19.7635 11.2365C18.7896 12.2104 18.7896 13.7896 19.7635 14.7635C20.7375 15.7375 22.3166 15.7375 23.2906 14.7635Z" stroke="white" stroke-width="1.49221" stroke-miterlimit="10"/>
<path d="M14.2906 22.7635C15.2645 21.7896 15.2645 20.2104 14.2906 19.2365C13.3166 18.2625 11.7375 18.2625 10.7635 19.2365C9.78956 20.2104 9.78956 21.7896 10.7635 22.7635C11.7375 23.7375 13.3166 23.7375 14.2906 22.7635Z" stroke="white" stroke-width="1.49221" stroke-miterlimit="10"/>
<path d="M31.2906 22.7635C32.2645 21.7896 32.2645 20.2104 31.2906 19.2365C30.3166 18.2625 28.7375 18.2625 27.7635 19.2365C26.7896 20.2104 26.7896 21.7896 27.7635 22.7635C28.7375 23.7375 30.3166 23.7375 31.2906 22.7635Z" stroke="white" stroke-width="1.49221" stroke-miterlimit="10"/>
<path d="M22.2906 30.7635C23.2645 29.7896 23.2645 28.2104 22.2906 27.2365C21.3166 26.2625 19.7375 26.2625 18.7635 27.2365C17.7896 28.2104 17.7896 29.7896 18.7635 30.7635C19.7375 31.7375 21.3166 31.7375 22.2906 30.7635Z" stroke="white" stroke-width="1.49221" stroke-miterlimit="10"/>
<path d="M35.434 8H8V35.434H35.434V8Z" stroke="white" stroke-width="1.49221" stroke-miterlimit="10"/>
<path d="M27.494 17.988C28.8714 17.988 29.988 16.8714 29.988 15.494C29.988 14.1166 28.8714 13 27.494 13C26.1166 13 25 14.1166 25 15.494C25 16.8714 26.1166 17.988 27.494 17.988Z" stroke="white" stroke-width="1.49221" stroke-miterlimit="10"/>
<path d="M15.494 17.988C16.8714 17.988 17.988 16.8714 17.988 15.494C17.988 14.1166 16.8714 13 15.494 13C14.1166 13 13 14.1166 13 15.494C13 16.8714 14.1166 17.988 15.494 17.988Z" stroke="white" stroke-width="1.49221" stroke-miterlimit="10"/>
<path d="M27.494 28.988C28.8714 28.988 29.988 27.8714 29.988 26.494C29.988 25.1166 28.8714 24 27.494 24C26.1166 24 25 25.1166 25 26.494C25 27.8714 26.1166 28.988 27.494 28.988Z" stroke="white" stroke-width="1.49221" stroke-miterlimit="10"/>
<path d="M21.4609 22.9219C22.2678 22.9219 22.9219 22.2678 22.9219 21.4609C22.9219 20.6541 22.2678 20 21.4609 20C20.6541 20 20 20.6541 20 21.4609C20 22.2678 20.6541 22.9219 21.4609 22.9219Z" stroke="white" stroke-width="1.49221" stroke-miterlimit="10"/>
<path d="M15.494 28.988C16.8714 28.988 17.988 27.8714 17.988 26.494C17.988 25.1166 16.8714 24 15.494 24C14.1166 24 13 25.1166 13 26.494C13 27.8714 14.1166 28.988 15.494 28.988Z" stroke="white" stroke-width="1.49221" stroke-miterlimit="10"/>
</svg>
