<svg width="36" height="33" viewBox="0 0 36 33" fill="none" xmlns="http://www.w3.org/2000/svg">
<path d="M26.0158 11.4299C26.0158 10.6406 26.6842 10 27.5079 10C28.3316 10 29 10.6406 29 11.4299C29 12.2193 28.3316 12.8598 27.5079 12.8598C26.6842 12.8598 26.0158 12.2193 26.0158 11.4299Z" fill="white"/>
<path d="M2.74475 9.02734H3.23436H17.1703H17.4417L17.5672 8.78676L18.6469 6.71733C18.6469 6.71732 18.6469 6.71732 18.6469 6.71731C18.8193 6.38701 19.1791 6.16743 19.5846 6.16743H22.5687H22.5689H23.0476H23.0538L23.0538 6.16739C23.0613 6.16728 23.0676 6.16704 23.072 6.16683H26.1881H26.4179L26.5519 5.9801C26.6305 5.87051 26.7161 5.7597 26.8076 5.64737C26.809 5.64564 26.8106 5.64368 26.8124 5.6415M2.74475 9.02734L26.4638 5.36063M2.74475 9.02734L2.78849 8.53969C2.93447 6.91194 3.31662 5.4979 3.82955 4.44143C4.08594 3.91335 4.38052 3.46324 4.70451 3.11986C4.93382 2.87683 5.18831 2.67646 5.46433 2.54611V2.41212H5.91199H29.2711H30.6729L29.5305 3.22459C28.5702 3.90755 27.7738 4.57857 27.1609 5.24171L27.1608 5.24185L27.1515 5.25187L27.1452 5.25858L2.74475 9.02734ZM26.8124 5.6415C26.8154 5.63772 26.8189 5.63329 26.8226 5.62829L26.4638 5.36063M26.8124 5.6415C26.8118 5.64222 26.8112 5.64294 26.8106 5.64366L26.4638 5.36063M26.8124 5.6415C26.8521 5.59287 26.8928 5.54424 26.9346 5.49554L26.9355 5.49451C26.9486 5.47918 26.9617 5.46413 26.9777 5.44577M26.4638 5.36063C26.5064 5.30834 26.5502 5.25613 26.595 5.20391C26.6098 5.18662 26.6248 5.16939 26.6398 5.15217M26.9777 5.44577C26.9776 5.44591 26.9774 5.44606 26.9773 5.4462L26.6398 5.15217M26.9777 5.44577L26.6398 5.15217M26.9777 5.44577C27.0033 5.41635 27.0294 5.38687 27.056 5.3572L27.0565 5.35664C27.0856 5.32405 27.1148 5.29166 27.1446 5.25933L27.1443 5.25962L26.8157 4.95564C26.7841 4.98996 26.7531 5.02421 26.7225 5.05853C26.6945 5.08976 26.667 5.12093 26.6398 5.15217M29.4311 5.83498L28.9586 6.30454C28.7394 6.52242 28.5476 6.7354 28.3873 6.94121L28.3863 6.94253C28.3498 6.98973 28.3133 7.0382 28.2782 7.08737L28.2782 7.08748C28.2605 7.11222 28.2439 7.1368 28.2309 7.15603C28.2286 7.15937 28.2264 7.16255 28.2244 7.16554L28.5949 7.41687M29.4311 5.83498L28.135 7.30339C28.1517 7.27621 28.1699 7.24706 28.19 7.21654L28.19 7.21648C28.2009 7.19994 28.2124 7.18305 28.221 7.17047C28.2225 7.16827 28.224 7.16621 28.2253 7.1643L28.5949 7.41687M29.4311 5.83498L29.6874 6.44974C30.188 7.65019 30.4764 9.14176 30.4764 10.7241C30.4764 12.6139 30.0692 14.292 29.4644 15.5125C29.1624 16.1219 28.8033 16.633 28.4062 16.9977C28.0117 17.3599 27.5466 17.6064 27.0447 17.6064C26.9071 17.6064 26.7632 17.5806 26.6174 17.5363L29.4311 5.83498ZM28.5949 7.41687C28.5932 7.41929 28.5916 7.42172 28.5899 7.42415C28.5812 7.43688 28.5725 7.44964 28.5642 7.46224M28.5949 7.41687C28.5973 7.41326 28.5998 7.40965 28.6022 7.40604C28.6153 7.38668 28.6284 7.36732 28.6426 7.34749L28.5642 7.46224M28.5642 7.46224C28.5473 7.48792 28.5315 7.51312 28.5162 7.53805C28.5088 7.54999 28.5017 7.56185 28.4947 7.57371M28.5642 7.46224L28.4402 7.67044C28.4418 7.66746 28.4433 7.66449 28.4448 7.66153C28.4467 7.65774 28.4487 7.65396 28.4508 7.65013C28.4644 7.62519 28.4794 7.59952 28.4947 7.57371M28.4947 7.57371L28.1098 7.34522C28.0936 7.3725 28.0755 7.40346 28.058 7.4353C28.053 7.44443 28.049 7.45231 28.0472 7.45586L28.0471 7.45607L28.0455 7.4592L28.1347 7.30374C28.1259 7.31817 28.1173 7.33237 28.1091 7.34637L28.4947 7.57371ZM9.58746 21.4493V21.8969H9.13979H4.66344C2.41963 21.8969 0.634743 23.6343 0.634743 25.7391C0.634743 27.8439 2.41969 29.5813 4.66344 29.5813H9.39536H9.70743L9.81539 29.8741C10.3636 31.361 11.8505 32.4412 13.6161 32.4412C15.8599 32.4412 17.6448 30.7038 17.6448 28.599V20.0193V19.5717H18.0925H26.5973V19.5711L27.0449 19.5711C28.6124 19.5708 29.9793 18.6309 30.9759 17.0213C31.9731 15.4106 32.5652 13.1726 32.5652 10.7241C32.5652 8.5539 32.092 6.51928 31.2615 4.94836L31.0726 4.59096L31.4089 4.36668C32.1811 3.85179 33.0045 3.35983 33.8274 2.90836C34.3501 2.62158 34.7561 2.41348 34.9838 2.30312C35.4776 2.06375 35.6233 1.61079 35.5226 1.20629C35.4213 0.799273 35.0704 0.447664 34.5056 0.447664H5.78588L5.58623 0.462773C4.14159 0.688924 2.91115 1.74798 2.02741 3.44753C1.14143 5.15141 0.634605 7.44987 0.634605 10.0097C0.634605 12.5695 1.14143 14.8679 2.02741 16.5718C2.91115 18.2714 4.14159 19.3304 5.58623 19.5566L5.78586 19.5717H9.13979H9.58746V20.0193V21.4493ZM21.5242 10.7829V10.7845V11.4396C21.5242 13.5571 22.0803 15.4802 22.9787 16.9227L23.4049 17.607H22.5987H16.6003H10.6319H5.91199H5.8597L5.80882 17.595C5.39783 17.4976 5.02636 17.2406 4.70451 16.8995C4.38052 16.5561 4.08594 16.106 3.82955 15.5779C3.31662 14.5214 2.93447 13.1073 2.78849 11.4796L2.74475 10.9919H3.23436H18.0925C18.498 10.9919 18.8578 10.7724 19.0302 10.4421C19.0302 10.442 19.0302 10.442 19.0302 10.442L20.1099 8.37261L20.2354 8.13202H20.5068H21.0766H21.5242V8.57968L21.5242 10.6542L21.5242 10.6569C21.5241 10.674 21.524 10.6843 21.5238 10.6931C21.5237 10.7029 21.5236 10.7109 21.5236 10.7241C21.5236 10.7432 21.5237 10.745 21.5238 10.7472C21.5239 10.7497 21.5241 10.7528 21.5242 10.7829ZM15.1082 19.5717H15.5559V20.0193V28.599C15.5559 29.6544 14.6699 30.4766 13.6161 30.4766C12.5624 30.4766 11.6763 29.6544 11.6763 28.599V22.8793V20.0193V19.5717H12.124H15.1082ZM9.58746 27.169V27.6167H9.13979H4.66344C3.60965 27.6167 2.72368 26.7945 2.72368 25.7391C2.72368 24.6838 3.60965 23.8615 4.66344 23.8615H9.13979H9.58746V24.3092V27.169Z" fill="white" stroke="#323639" stroke-width="0.895327"/>
</svg>
