<svg width="35" height="35" viewBox="0 0 35 35" fill="none" xmlns="http://www.w3.org/2000/svg">
<path d="M33.8287 1H1V33.8287H33.8287V1Z" stroke="white" stroke-width="1.49221" stroke-miterlimit="10"/>
<path d="M24.9844 12.9688C26.6327 12.9688 27.9688 11.6327 27.9688 9.98442C27.9688 8.33617 26.6327 7 24.9844 7C23.3362 7 22 8.33617 22 9.98442C22 11.6327 23.3362 12.9688 24.9844 12.9688Z" stroke="white" stroke-width="1.49221" stroke-miterlimit="10"/>
<path d="M9.98442 12.9688C11.6327 12.9688 12.9688 11.6327 12.9688 9.98442C12.9688 8.33617 11.6327 7 9.98442 7C8.33617 7 7 8.33617 7 9.98442C7 11.6327 8.33617 12.9688 9.98442 12.9688Z" stroke="white" stroke-width="1.49221" stroke-miterlimit="10"/>
<path d="M24.9844 25.9688C26.6327 25.9688 27.9688 24.6327 27.9688 22.9844C27.9688 21.3362 26.6327 20 24.9844 20C23.3362 20 22 21.3362 22 22.9844C22 24.6327 23.3362 25.9688 24.9844 25.9688Z" stroke="white" stroke-width="1.49221" stroke-miterlimit="10"/>
<path d="M9.98442 25.9688C11.6327 25.9688 12.9688 24.6327 12.9688 22.9844C12.9688 21.3362 11.6327 20 9.98442 20C8.33617 20 7 21.3362 7 22.9844C7 24.6327 8.33617 25.9688 9.98442 25.9688Z" stroke="white" stroke-width="1.49221" stroke-miterlimit="10"/>
</svg>
