<svg width="24" height="23" viewBox="0 0 24 23" fill="none" xmlns="http://www.w3.org/2000/svg">
<path d="M17.609 4.07223L17.7639 4.19868C17.7914 4.16496 17.8197 4.13124 17.8486 4.0975L17.849 4.09703L17.8777 4.0639C17.8953 4.04371 17.9131 4.02351 17.9313 4.00322L17.9315 4.00297C17.9515 3.98063 17.9716 3.9584 17.992 3.93617L17.9967 3.93118L18.0026 3.92474L18.0027 3.92467C18.4195 3.47363 18.9591 3.01948 19.6062 2.55928L20.1166 2.1963L19.4903 2.1963L3.83625 2.19639L3.81288 2.19639L3.79015 2.20178C3.53989 2.26106 3.3072 2.4194 3.0998 2.63922C2.89144 2.86004 2.69935 3.15248 2.53067 3.49991C2.19324 4.19491 1.93962 5.13028 1.84265 6.2116L1.82311 6.42947H2.04185H11.381H11.5022L11.5583 6.32198L12.2818 4.93516C12.4153 4.67938 12.6915 4.51291 12.9989 4.51291H15.3196V4.51293L15.3224 4.51289L15.332 4.51258L15.3333 4.5125H17.4242H17.5269L17.5867 4.42908C17.6412 4.35311 17.7003 4.27663 17.7633 4.19947L17.6082 4.07308M17.609 4.07223L17.7693 4.19182C17.7664 4.19564 17.7639 4.19873 17.7621 4.20089L17.76 4.20338L17.7591 4.20436L17.6082 4.07308M17.609 4.07223L17.6082 4.07308M17.609 4.07223C17.6375 4.03719 17.6668 4.0022 17.6969 3.96721C17.7051 3.95757 17.7135 3.94796 17.7218 3.93836L17.7269 3.93253C17.7451 3.9116 17.7636 3.89071 17.7823 3.86978L17.4242 4.3125C17.4816 4.23259 17.5432 4.15282 17.6082 4.07308M19.5624 4.56593L19.677 4.84059C20.0067 5.63131 20.198 6.61756 20.198 7.66652C20.198 8.91954 19.9278 10.0286 19.5302 10.831C19.3316 11.2319 19.0976 11.5633 18.843 11.7971C18.5896 12.0298 18.3009 12.1787 17.9983 12.1787C17.9173 12.1787 17.8298 12.1633 17.738 12.1351L17.7305 12.1333L17.7215 12.1312L17.7126 12.1283C17.6221 12.0979 17.5207 12.0475 17.4113 11.98L17.4112 11.9799C17.402 11.9742 17.395 11.9699 17.3891 11.9663C17.3862 11.9644 17.3835 11.9627 17.381 11.9611C17.3734 11.9563 17.3673 11.9521 17.3598 11.9471L17.3598 11.947C17.2999 11.9075 17.2297 11.8489 17.1385 11.7687L17.1318 11.7628L17.1319 11.7626C16.335 10.9964 15.8073 9.43344 15.7988 7.70924L15.7988 7.70825L15.7988 7.63085V7.63C15.8009 7.13645 15.8456 6.65356 15.9302 6.19331L15.9603 6.02947H16.1269H17.9986C18.3156 6.02947 18.5982 5.85269 18.7267 5.58517C18.7267 5.58517 18.7267 5.58516 18.7267 5.58515L19.5624 4.56593ZM19.5624 4.56593L19.3514 4.77571M19.5624 4.56593L19.3514 4.77571M19.0371 5.45021L18.872 5.33738C18.8657 5.34649 18.8573 5.35879 18.8494 5.37082L18.8493 5.37086C18.8366 5.39028 18.8249 5.40898 18.814 5.42674C18.814 5.42669 18.814 5.42664 18.814 5.4266L19.0371 5.45021ZM19.0371 5.45021L18.8716 5.33793M19.0371 5.45021L18.8716 5.33793M19.3514 4.77571C19.2068 4.91943 19.0812 5.05899 18.9769 5.19289L18.9764 5.19348M19.3514 4.77571L18.9764 5.19348M18.9764 5.19348C18.9525 5.22444 18.9289 5.25587 18.9063 5.28751L18.9063 5.28756M18.9764 5.19348L18.9063 5.28756M18.9063 5.28756C18.8952 5.30302 18.8849 5.3183 18.8761 5.33123M18.9063 5.28756L18.8761 5.33123M18.8761 5.33123C18.8746 5.33354 18.873 5.33578 18.8716 5.33793M18.8761 5.33123L18.8716 5.33793M5.99935 15.054H6.19935V14.854V13.8957V13.6957H5.99935H3.74796L3.60646 13.685C2.59456 13.5282 1.74617 12.789 1.1443 11.6315C0.541442 10.4721 0.199634 8.91512 0.199634 7.18777C0.199634 5.46042 0.541442 3.90342 1.1443 2.74405C1.74617 1.58656 2.59456 0.847337 3.60646 0.690537L3.74796 0.679828H22.9982C23.4259 0.679828 23.6986 0.950084 23.7767 1.26407C23.8546 1.57692 23.7394 1.93041 23.3623 2.11324C23.2116 2.18628 22.941 2.32492 22.5918 2.51652C22.0424 2.81791 21.4931 3.14613 20.9784 3.48934L20.8281 3.58954L20.9125 3.74922C21.4779 4.81863 21.7978 6.19868 21.7978 7.66652C21.7978 9.32209 21.3977 10.841 20.7178 11.9392C20.0381 13.037 19.0941 13.6951 17.9984 13.6953L11.999 13.6957L11.799 13.6957V13.8957V19.6454C11.799 21.1151 10.554 22.3202 8.99916 22.3202C7.77488 22.3202 6.74045 21.5709 6.35827 20.5344L6.31004 20.4036H6.17062H2.99954C1.44473 20.4036 0.199725 19.1985 0.199725 17.7288C0.199725 16.2591 1.44468 15.054 2.99954 15.054H5.99935ZM15.3363 4.51233C15.337 4.51229 15.3369 4.51231 15.3363 4.51234L15.3363 4.51233ZM18.798 5.45324C18.7874 5.47108 18.776 5.49052 18.7653 5.51019C18.7653 5.51006 18.7654 5.50994 18.7655 5.50982L18.798 5.45324ZM14.1987 7.70699L14.1987 7.7063C14.1987 7.69086 14.1986 7.68687 14.1985 7.68347C14.1984 7.68029 14.1983 7.67761 14.1983 7.66652C14.1983 7.6576 14.1984 7.6512 14.1985 7.64383C14.1986 7.6376 14.1987 7.63066 14.1987 7.62091V7.61971V6.22947V6.02947H13.9987H13.6169H13.4957L13.4396 6.13696L12.716 7.52378C12.5826 7.77956 12.3064 7.94603 11.999 7.94603H2.04185H1.82311L1.84265 8.16389C1.93962 9.24521 2.19324 10.1806 2.53067 10.8756C2.69935 11.223 2.89144 11.5155 3.0998 11.7363C3.3072 11.9561 3.5399 12.1145 3.79016 12.1737L3.81289 12.1791H3.83625H15.0188H15.379L15.1886 11.8734C14.5757 10.8892 14.1987 9.58182 14.1987 8.14603L14.1987 7.70699ZM10.1991 13.8957V13.6957H9.99909H7.9992H7.7992V13.8957V19.6454C7.7992 20.2934 8.34416 20.8036 8.99916 20.8036C9.65418 20.8036 10.1991 20.2934 10.1991 19.6454V13.8957ZM5.99935 18.8871H6.19935V18.6871V16.7705V16.5705H5.99935H2.99954C2.34452 16.5705 1.79962 17.0808 1.79962 17.7288C1.79962 18.3768 2.34452 18.8871 2.99954 18.8871H5.99935Z" fill="black" stroke="white" stroke-width="0.4"/>
</svg>
