<svg width="12" height="14" viewBox="0 0 12 14" fill="none" xmlns="http://www.w3.org/2000/svg">
    <path d="M10.0625 4.66667H9.34375V3.33333C9.34375 1.49333 7.73375 0 5.75 0C3.76625 0 2.15625 1.49333 2.15625 3.33333V4.66667H1.4375C0.643281 4.66667 0 5.26333 0 6V12.6667C0 13.4033 0.643281 14 1.4375 14H10.0625C10.8567 14 11.5 13.4033 11.5 12.6667V6C11.5 5.26333 10.8567 4.66667 10.0625 4.66667ZM5.75 10.6667C4.95578 10.6667 4.3125 10.07 4.3125 9.33333C4.3125 8.59667 4.95578 8 5.75 8C6.54422 8 7.1875 8.59667 7.1875 9.33333C7.1875 10.07 6.54422 10.6667 5.75 10.6667ZM7.97813 4.66667H3.52187V3.33333C3.52187 2.19333 4.52094 1.26667 5.75 1.26667C6.97906 1.26667 7.97813 2.19333 7.97813 3.33333V4.66667Z" fill="white"/>
</svg>
