<svg width="19" height="19" viewBox="0 0 19 19" fill="none" xmlns="http://www.w3.org/2000/svg">
    <path d="M10.5556 0H8.44444V10.5556H10.5556V0ZM15.6592 2.28528L14.1656 3.77889C15.8228 5.13528 16.8889 7.18833 16.8889 9.5C16.8889 13.5797 13.5797 16.8889 9.5 16.8889C5.42028 16.8889 2.11111 13.5797 2.11111 9.5C2.11111 7.18833 3.17722 5.13528 4.83444 3.77889L3.34083 2.28528C1.30361 4.02694 0 6.60778 0 9.5C0 14.7461 4.25389 19 9.5 19C14.7461 19 19 14.7461 19 9.5C19 6.60778 17.6964 4.02694 15.6592 2.28528Z" fill="white"/>
</svg>
