<svg width="11" height="11" viewBox="0 0 11 11" fill="none" xmlns="http://www.w3.org/2000/svg">
    <path d="M5.5 0C2.46125 0 0 2.46125 0 5.5C0 8.53875 2.46125 11 5.5 11C8.53875 11 11 8.53875 11 5.5C11 2.46125 8.53875 0 5.5 0ZM5.5 9.9C3.069 9.9 1.1 7.931 1.1 5.5C1.1 4.4825 1.44925 3.55025 2.02675 2.805L8.195 8.97325C7.44975 9.55075 6.5175 9.9 5.5 9.9ZM8.97325 8.195L2.805 2.02675C3.55025 1.44925 4.4825 1.1 5.5 1.1C7.931 1.1 9.9 3.069 9.9 5.5C9.9 6.5175 9.55075 7.44975 8.97325 8.195Z" fill="#e82d2d"/>
</svg>
