<svg width="14" height="14" viewBox="0 0 14 14" fill="none" xmlns="http://www.w3.org/2000/svg">
    <path d="M3.06291 3.89128L2.27444 3.08462C0.953885 4.1141 0.0827068 5.70487 0 7.51282H1.10276C1.18822 6.01795 1.94085 4.70923 3.06291 3.89128ZM9.89724 7.51282H11C10.9173 5.70487 10.0461 4.1141 8.72556 3.08462L7.93985 3.88846C9.05915 4.70923 9.81178 6.01795 9.89724 7.51282ZM8.80827 7.79487C8.80827 6.06026 7.90677 4.61333 6.32707 4.22974V3.84615C6.32707 3.37795 5.95764 3 5.5 3C5.04236 3 4.67293 3.37795 4.67293 3.84615V4.22974C3.09323 4.61333 2.19173 6.06026 2.19173 7.79487V10.6154L1.08897 11.7436V12.3077H9.91103V11.7436L8.80827 10.6154V7.79487ZM5.5 14C5.57719 14 5.65163 13.9915 5.72331 13.9774C6.0817 13.9013 6.37669 13.6474 6.51729 13.3118C6.57243 13.1764 6.60276 13.0297 6.60276 12.8718H4.39724C4.39724 13.4951 4.89073 14 5.5 14Z" fill="#9C9A9A"/>
    <circle cx="11" cy="3" r="2.1" fill="#EA00FE" stroke="black" stroke-width="0.2"/>
</svg>
