<svg width="14" height="14" viewBox="0 -3 14 14" fill="none" xmlns="http://www.w3.org/2000/svg">
    <path d="M3.06291 0.891282L2.27444 0.0846154C0.953885 1.1141 0.0827068 2.70487 0 4.51282H1.10276C1.18822 3.01795 1.94085 1.70923 3.06291 0.891282ZM9.89724 4.51282H11C10.9173 2.70487 10.0461 1.1141 8.72556 0.0846154L7.93985 0.888461C9.05915 1.70923 9.81178 3.01795 9.89724 4.51282ZM8.80827 4.79487C8.80827 3.06026 7.90677 1.61333 6.32707 1.22974V0.846154C6.32707 0.377949 5.95764 0 5.5 0C5.04236 0 4.67293 0.377949 4.67293 0.846154V1.22974C3.09323 1.61333 2.19173 3.06026 2.19173 4.79487V7.61539L1.08897 8.74359V9.30769H9.91103V8.74359L8.80827 7.61539V4.79487ZM5.5 11C5.57719 11 5.65163 10.9915 5.72331 10.9774C6.0817 10.9013 6.37669 10.6474 6.51729 10.3118C6.57243 10.1764 6.60276 10.0297 6.60276 9.8718H4.39724C4.39724 10.4951 4.89073 11 5.5 11Z" fill="#9C9A9A"/>
</svg>
