<svg width="11" height="12" viewBox="0 0 11 12" fill="none" xmlns="http://www.w3.org/2000/svg">
    <path d="M2.46967 1.379L2.46962 1.37922C2.46594 1.39567 2.46228 1.41205 2.45864 1.42828C2.43874 1.51721 2.41985 1.60159 2.40498 1.66965C2.3962 1.70988 2.38879 1.74452 2.3834 1.77108C2.37833 1.79608 2.37473 1.81544 2.37373 1.82522C2.37281 1.83081 2.37203 1.83304 2.37136 1.83428C2.37103 1.83488 2.37033 1.83615 2.36696 1.83805C2.35813 1.84302 2.33826 1.84844 2.29233 1.85268C2.20235 1.86099 2.02964 1.8638 1.69346 1.86799C1.69342 1.86799 1.69338 1.86799 1.69335 1.86799M2.46967 1.379L1.69366 1.89299M2.46967 1.379L2.55943 0.994218L2.56394 0.974897H2.58378H5.45126H8.31874H8.33857L8.34308 0.994211L8.43296 1.37899L8.43301 1.37922L8.4414 1.41674C8.46225 1.5099 8.48211 1.59865 8.4976 1.66965C8.50638 1.70988 8.51379 1.74452 8.51918 1.77108C8.52427 1.79616 8.52789 1.81551 8.52889 1.82522M2.46967 1.379L2.58378 0.999897M1.69335 1.86799L1.69366 1.89299M1.69335 1.86799L0.999798 1.8736L0.975 1.8738V1.8986V2.26655C0.975 2.84359 1.08559 3.29673 1.35938 3.86698L1.35944 3.8671C1.77746 4.72581 2.57052 5.53288 3.4541 5.99308L3.45423 5.99315C3.50204 6.01769 3.55287 6.04996 3.59657 6.08197C3.64068 6.11429 3.67586 6.14513 3.69353 6.16655M1.69335 1.86799L7.31092 10.1925L7.63387 10.2008L7.6503 10.2012L7.65642 10.2165L7.9653 10.9861L7.96531 10.9861C8.04962 11.1969 8.12481 11.3901 8.17824 11.5314C8.20494 11.602 8.22626 11.6598 8.24057 11.7003C8.24771 11.7205 8.25319 11.7367 8.25674 11.7481C8.25849 11.7538 8.25991 11.7587 8.26081 11.7626C8.26124 11.7644 8.26174 11.7667 8.26199 11.7691C8.26211 11.7702 8.26229 11.7723 8.26209 11.7748L8.26208 11.7749C8.26199 11.7762 8.26139 11.7843 8.25469 11.791C8.25069 11.795 8.24634 11.7965 8.24551 11.7968L8.24544 11.7969C8.24395 11.7974 8.2427 11.7977 8.24207 11.7978C8.24074 11.7981 8.23956 11.7983 8.23892 11.7984C8.2375 11.7985 8.23593 11.7987 8.23449 11.7988C8.23149 11.799 8.22739 11.7991 8.22238 11.7993C8.21228 11.7996 8.19759 11.8 8.17863 11.8003C8.14066 11.8009 8.0851 11.8014 8.01388 11.8019C7.87143 11.803 7.66611 11.8037 7.41316 11.8043C6.90726 11.8053 6.21073 11.8053 5.44538 11.8039L5.44535 11.8039L2.66499 11.7954L2.62816 11.7953L2.64186 11.7611L2.95359 10.9832L2.9536 10.9832L3.26533 10.2025L3.27161 10.1867H3.28855H3.61437H3.92189L3.95288 10.089L3.95288 10.089L3.95299 10.0887C3.98114 10.0042 4.04038 9.91407 4.11397 9.83546C4.18758 9.75683 4.27713 9.68799 4.36773 9.64701C4.44928 9.60761 4.57277 9.54867 4.64594 9.51495L4.64593 9.51495L4.64639 9.51475C4.70038 9.49117 4.73185 9.47235 4.75472 9.44888C4.77744 9.42556 4.7935 9.39575 4.81275 9.34622C4.84233 9.26552 4.85052 9.19886 4.83315 9.11959C4.81545 9.03872 4.77087 8.94332 4.69103 8.80602C4.627 8.69753 4.59199 8.63695 4.57441 8.57565C4.5567 8.51389 4.55694 8.45237 4.55836 8.34389C4.55836 8.24523 4.56187 8.17904 4.57726 8.11163C4.5926 8.04447 4.61949 7.97726 4.66441 7.87619M1.69366 1.89299C2.36488 1.88463 2.39007 1.88177 2.39854 1.82842C2.40108 1.79989 2.4396 1.62782 2.48305 1.4337C2.48668 1.41749 2.49034 1.40112 2.49402 1.38468M1.69366 1.89299L2.49402 1.38468M2.49402 1.38468L2.58378 0.999897M2.49402 1.38468L2.58378 0.999897M2.58378 0.999897H5.45126H8.31874L8.40861 1.38468L8.41692 1.42183C8.46144 1.62076 8.5014 1.79931 8.50409 1.82842M8.50409 1.82842L8.52879 1.82455C8.52882 1.82478 8.52886 1.825 8.52889 1.82522M8.50409 1.82842C8.51245 1.88177 8.53775 1.88452 9.22019 1.89299M8.50409 1.82842L9.22019 1.89299M8.52889 1.82522C8.52981 1.83085 8.53059 1.83303 8.53123 1.83422L8.53124 1.83423C8.53153 1.83477 8.53223 1.83605 8.53568 1.83797C8.54471 1.84298 8.56496 1.8484 8.61162 1.85263C8.70304 1.86094 8.87863 1.86374 9.22045 1.86799M8.52889 1.82522L9.22045 1.86799M9.22045 1.86799C9.22047 1.86799 9.22048 1.86799 9.2205 1.86799L9.22019 1.89299M9.22045 1.86799C9.29126 1.86872 9.35548 1.86912 9.41367 1.86948C9.52227 1.87015 9.60985 1.87069 9.68004 1.87307C9.78667 1.87669 9.85876 1.88454 9.90557 1.90655C9.9301 1.91809 9.9485 1.93381 9.96128 1.95501C9.97375 1.9757 9.97978 1.99983 9.9828 2.02645C9.9858 2.053 9.98598 2.0839 9.9855 2.11893C9.98535 2.13015 9.98513 2.14181 9.98489 2.15398C9.98439 2.18036 9.98384 2.20916 9.98384 2.2412M9.22019 1.89299C9.71213 1.8981 9.87927 1.8868 9.93451 1.95998C9.97072 2.00796 9.95884 2.09223 9.95884 2.24125M9.95884 2.24125L9.98384 2.2412M9.95884 2.24125H9.98384C9.98384 2.24123 9.98384 2.24121 9.98384 2.2412M9.95884 2.24125C9.9617 3.65948 9.02087 5.10312 7.55193 5.93439M9.98384 2.2412L7.56432 5.9561M7.55193 5.93439L7.56437 5.95607C7.56436 5.95608 7.56434 5.95609 7.56432 5.9561M7.55193 5.93439L7.56424 5.95614C7.56427 5.95613 7.56429 5.95611 7.56432 5.9561M7.55193 5.93439C7.22897 6.11974 7.19531 6.14504 6.88357 6.4933C6.423 6.99875 6.26295 7.20104 6.17847 7.3865M7.56432 5.9561C7.40259 6.04892 7.31534 6.10056 7.22953 6.17197C7.14345 6.2436 7.05834 6.33553 6.9022 6.50997L6.90205 6.51013C6.44083 7.01629 6.2838 7.21562 6.20125 7.39678M6.17847 7.3865L6.2013 7.39669C6.20128 7.39672 6.20127 7.39675 6.20125 7.39678M6.17847 7.3865C6.09696 7.5691 6.09971 7.59715 6.22896 7.89206L6.20125 7.39678M6.17847 7.3865L6.20122 7.39686C6.20123 7.39683 6.20124 7.39681 6.20125 7.39678M4.66441 7.87619C4.6644 7.87621 4.66439 7.87623 4.66438 7.87626L4.68731 7.88623L4.66447 7.87607C4.66445 7.87611 4.66443 7.87615 4.66441 7.87619ZM4.66441 7.87619C4.69225 7.81217 4.71795 7.7455 4.73663 7.68912C4.74598 7.66091 4.75349 7.63552 4.75864 7.61449C4.76391 7.59293 4.76626 7.57764 4.76626 7.56888C4.76626 7.48436 4.72112 7.37325 4.60825 7.2118C4.49593 7.05115 4.31934 6.84441 4.06257 6.5694M4.06257 6.5694C3.89975 6.39822 3.73348 6.21511 3.69353 6.16655M4.06257 6.5694C4.06255 6.56937 4.06252 6.56935 4.0625 6.56932L4.08077 6.55226M4.06257 6.5694C4.0626 6.56943 4.06263 6.56946 4.06266 6.56949L4.08077 6.55226M3.69353 6.16655C3.69353 6.16655 3.69352 6.16654 3.69351 6.16653L3.71282 6.15065M3.69353 6.16655L3.71282 6.15065M3.71282 6.15065C3.75209 6.19839 3.91786 6.38099 4.08077 6.55226M3.71282 6.15065C3.67344 6.10291 3.56399 6.0214 3.46565 5.97091C2.58664 5.51309 1.7975 4.70987 1.38192 3.85616L4.08077 6.55226M9.38434 3.05737L9.38438 3.05723C9.42046 2.93218 9.45466 2.76337 9.47668 2.62045C9.48769 2.54901 9.49558 2.48451 9.49916 2.43553C9.50095 2.41097 9.50162 2.39083 9.50115 2.37587C9.50098 2.37031 9.50065 2.36574 9.50022 2.3621C9.49429 2.3611 9.4862 2.36003 9.47593 2.35896C9.45141 2.3564 9.41648 2.35397 9.37348 2.35188C9.2876 2.3477 9.17075 2.3449 9.04331 2.3449H8.60774V2.69632C8.60774 3.52853 8.44676 4.21772 8.08814 4.90687L8.08812 4.9069C8.05464 4.97102 8.02762 5.02856 8.0108 5.06975C8.01013 5.07137 8.00949 5.07297 8.00886 5.07453C8.03293 5.05473 8.06398 5.0266 8.1002 4.99199C8.17566 4.91989 8.2722 4.82099 8.37208 4.71427C8.57229 4.50036 8.78374 4.25735 8.86532 4.13704L8.86543 4.13688C9.08863 3.81311 9.29242 3.38307 9.38434 3.05737ZM2.30326 2.87401L2.30326 2.874L2.28721 2.37295H1.86768H1.44608V2.44343C1.44608 2.73048 1.57938 3.21815 1.76389 3.60952C1.87243 3.83626 2.05314 4.11341 2.25186 4.3695C2.45067 4.62571 2.66615 4.8591 2.8436 4.99917C2.84363 4.99919 2.84366 4.99921 2.84369 4.99923L2.87073 5.02033L2.77497 4.8307L2.77495 4.83065C2.45853 4.2008 2.32867 3.65796 2.30326 2.87401Z" fill="white" stroke="black" stroke-width="0.1"/>
</svg>
