<svg width="11" height="11" viewBox="0 0 11 11" fill="none" xmlns="http://www.w3.org/2000/svg">
    <path d="M9.77778 0H1.22222C0.546944 0 0 0.546944 0 1.22222V9.77778C0 10.4531 0.546944 11 1.22222 11H9.77778C10.4531 11 11 10.4531 11 9.77778V1.22222C11 0.546944 10.4531 0 9.77778 0ZM2.75 9.16667C2.24278 9.16667 1.83333 8.75722 1.83333 8.25C1.83333 7.74278 2.24278 7.33333 2.75 7.33333C3.25722 7.33333 3.66667 7.74278 3.66667 8.25C3.66667 8.75722 3.25722 9.16667 2.75 9.16667ZM2.75 3.66667C2.24278 3.66667 1.83333 3.25722 1.83333 2.75C1.83333 2.24278 2.24278 1.83333 2.75 1.83333C3.25722 1.83333 3.66667 2.24278 3.66667 2.75C3.66667 3.25722 3.25722 3.66667 2.75 3.66667ZM5.5 6.41667C4.99278 6.41667 4.58333 6.00722 4.58333 5.5C4.58333 4.99278 4.99278 4.58333 5.5 4.58333C6.00722 4.58333 6.41667 4.99278 6.41667 5.5C6.41667 6.00722 6.00722 6.41667 5.5 6.41667ZM8.25 9.16667C7.74278 9.16667 7.33333 8.75722 7.33333 8.25C7.33333 7.74278 7.74278 7.33333 8.25 7.33333C8.75722 7.33333 9.16667 7.74278 9.16667 8.25C9.16667 8.75722 8.75722 9.16667 8.25 9.16667ZM8.25 3.66667C7.74278 3.66667 7.33333 3.25722 7.33333 2.75C7.33333 2.24278 7.74278 1.83333 8.25 1.83333C8.75722 1.83333 9.16667 2.24278 9.16667 2.75C9.16667 3.25722 8.75722 3.66667 8.25 3.66667Z" fill="white"/>
</svg>