<svg width="13" height="3" viewBox="0 0 13 3" fill="none" xmlns="http://www.w3.org/2000/svg">
    <path d="M1.5 -6.55671e-08C2.32843 -1.01779e-07 3 0.671631 3 1.5C3 2.32837 2.32843 3 1.5 3C0.67157 3 -2.93579e-08 2.32837 -6.55671e-08 1.5C-1.01776e-07 0.671631 0.67157 -2.93552e-08 1.5 -6.55671e-08Z" fill="#EFEFEF"/>
    <path d="M6.5 -2.84124e-07C7.32843 -3.20336e-07 8 0.671631 8 1.5C8 2.32837 7.32843 3 6.5 3C5.67157 3 5 2.32837 5 1.5C5 0.671631 5.67157 -2.47912e-07 6.5 -2.84124e-07Z" fill="#EFEFEF"/>
    <path d="M13 1.5C13 0.67163 12.3284 -5.38893e-07 11.5 -5.02681e-07C10.6716 -4.66469e-07 10 0.67163 10 1.5C10 2.32837 10.6716 3 11.5 3C12.3284 3 13 2.32837 13 1.5Z" fill="#EFEFEF"/>
</svg>
