<svg width="7" height="9" viewBox="0 0 7 9" fill="none" xmlns="http://www.w3.org/2000/svg">
    <path d="M6.125 3H5.6875V2.14286C5.6875 0.96 4.7075 0 3.5 0C2.2925 0 1.3125 0.96 1.3125 2.14286V3H0.875C0.391562 3 0 3.38357 0 3.85714V8.14286C0 8.61643 0.391562 9 0.875 9H6.125C6.60844 9 7 8.61643 7 8.14286V3.85714C7 3.38357 6.60844 3 6.125 3ZM3.5 6.85714C3.01656 6.85714 2.625 6.47357 2.625 6C2.625 5.52643 3.01656 5.14286 3.5 5.14286C3.98344 5.14286 4.375 5.52643 4.375 6C4.375 6.47357 3.98344 6.85714 3.5 6.85714ZM4.85625 3H2.14375V2.14286C2.14375 1.41 2.75187 0.814286 3.5 0.814286C4.24813 0.814286 4.85625 1.41 4.85625 2.14286V3Z" fill="#B6B6B6"/>
</svg>