<svg width="14" height="18" viewBox="0 0 14 18" fill="none" xmlns="http://www.w3.org/2000/svg">
    <path d="M11.7512 5.96885H10.9118V4.26346C10.9118 1.91003 9.03161 0 6.71495 0C4.39829 0 2.51811 1.91003 2.51811 4.26346V5.96885H1.67874C0.755432 5.96885 0 6.73627 0 7.67423V16.2012C0 17.1391 0.755432 17.9065 1.67874 17.9065H11.7512C12.6745 17.9065 13.4299 17.1391 13.4299 16.2012V7.67423C13.4299 6.73627 12.6745 5.96885 11.7512 5.96885ZM4.11291 4.26346C4.11291 2.80536 5.27963 1.62012 6.71495 1.62012C8.15027 1.62012 9.317 2.80536 9.317 4.26346V5.96885H4.11291V4.26346ZM10.0724 12.7904H7.55432V15.3485H5.87558V12.7904H3.35748V11.085H5.87558V8.52693H7.55432V11.085H10.0724V12.7904Z" fill="white"/>
</svg>
