<svg width="5" height="7" viewBox="0 0 5 7" fill="none" xmlns="http://www.w3.org/2000/svg">
    <path d="M4.375 2.33333H4.0625V1.66667C4.0625 0.746667 3.3625 0 2.5 0C1.6375 0 0.9375 0.746667 0.9375 1.66667V2.33333H0.625C0.279687 2.33333 0 2.63167 0 3V6.33333C0 6.70167 0.279687 7 0.625 7H4.375C4.72031 7 5 6.70167 5 6.33333V3C5 2.63167 4.72031 2.33333 4.375 2.33333ZM2.5 5.33333C2.15469 5.33333 1.875 5.035 1.875 4.66667C1.875 4.29833 2.15469 4 2.5 4C2.84531 4 3.125 4.29833 3.125 4.66667C3.125 5.035 2.84531 5.33333 2.5 5.33333ZM3.46875 2.33333H1.53125V1.66667C1.53125 1.09667 1.96563 0.633333 2.5 0.633333C3.03437 0.633333 3.46875 1.09667 3.46875 1.66667V2.33333Z" fill="#3F3F3F"/>
</svg>
