<svg width="12" height="12" viewBox="0 0 12 12" fill="none" xmlns="http://www.w3.org/2000/svg">
    <path d="M1.33332 1.33335H5.41666V0.166687H1.33332C0.68874 0.166687 0.166656 0.68877 0.166656 1.33335V5.41669H1.33332V1.33335ZM4.83332 6.58335L2.49999 9.50002H9.49999L7.74999 7.16669L6.56582 8.74752L4.83332 6.58335ZM8.91666 3.95835C8.91666 3.47419 8.52582 3.08335 8.04166 3.08335C7.55749 3.08335 7.16666 3.47419 7.16666 3.95835C7.16666 4.44252 7.55749 4.83335 8.04166 4.83335C8.52582 4.83335 8.91666 4.44252 8.91666 3.95835ZM10.6667 0.166687H6.58332V1.33335H10.6667V5.41669H11.8333V1.33335C11.8333 0.68877 11.3112 0.166687 10.6667 0.166687ZM10.6667 10.6667H6.58332V11.8334H10.6667C11.3112 11.8334 11.8333 11.3113 11.8333 10.6667V6.58335H10.6667V10.6667ZM1.33332 6.58335H0.166656V10.6667C0.166656 11.3113 0.68874 11.8334 1.33332 11.8334H5.41666V10.6667H1.33332V6.58335Z" fill="#A5A5A5"/>
</svg>
