<svg width="24" height="24" viewBox="0 0 24 24" fill="none" xmlns="http://www.w3.org/2000/svg">
    <circle cx="12" cy="12" r="12" fill="#D8D8D8"/>
    <path d="M20.1976 10.2617C19.8591 10.2111 19.5116 10.1624 19.1647 10.1172C19.1227 10.1118 19.0886 10.0833 19.078 10.0447C18.9179 9.46377 18.6857 8.90324 18.3877 8.37864C18.3676 8.34341 18.3714 8.29897 18.3973 8.26533C18.6106 7.98812 18.822 7.70789 19.0257 7.43247C19.3008 7.06059 19.2609 6.53289 18.9329 6.20492L17.795 5.06705C17.4671 4.73911 16.9394 4.69918 16.5675 4.97431C16.2926 5.17758 16.0124 5.38901 15.7346 5.60273C15.7011 5.6286 15.6566 5.63236 15.6213 5.61236C15.0968 5.31438 14.5362 5.0821 13.9553 4.922C13.9167 4.91141 13.8882 4.87731 13.8827 4.83519C13.8374 4.48785 13.7888 4.14037 13.7382 3.80244C13.6698 3.34495 13.2684 3 12.8046 3H11.1954C10.7315 3 10.3302 3.34495 10.2619 3.80241C10.2113 4.1404 10.1627 4.48785 10.1174 4.83527C10.1118 4.87735 10.0834 4.91138 10.0447 4.922C9.46377 5.08217 8.9032 5.31441 8.37874 5.61236C8.34348 5.63236 8.29897 5.6285 8.26536 5.60273C7.98759 5.38901 7.70736 5.17758 7.43251 4.97427C7.06052 4.69918 6.53286 4.73918 6.20496 5.06709L5.06709 6.20496C4.73911 6.53296 4.69921 7.0607 4.97434 7.43254C5.17839 7.70838 5.38982 7.98854 5.60276 8.26533C5.6286 8.2989 5.6324 8.34337 5.6124 8.37864C5.31434 8.90334 5.0821 9.46388 4.92203 10.0447C4.91145 10.0832 4.87735 10.1117 4.8353 10.1173C4.48866 10.1625 4.14117 10.2111 3.80248 10.2618C3.34495 10.3302 3 10.7316 3 11.1954V12.8046C3 13.2684 3.34495 13.6698 3.80241 13.7382C4.1411 13.7889 4.48862 13.8375 4.83527 13.8827C4.87735 13.8882 4.91138 13.9167 4.922 13.9553C5.08206 14.5362 5.31434 15.0967 5.61236 15.6214C5.63236 15.6566 5.62857 15.7011 5.60273 15.7347C5.38926 16.0121 5.17783 16.2923 4.97431 16.5675C4.69921 16.9394 4.73908 17.4671 5.06705 17.7951L6.20492 18.9329C6.53293 19.2609 7.06066 19.3009 7.43251 19.0257C7.70733 18.8224 7.98752 18.611 8.26533 18.3973C8.2989 18.3714 8.34341 18.3677 8.37864 18.3876C8.90317 18.6856 9.46367 18.9178 10.0447 19.078C10.0833 19.0886 10.1118 19.1227 10.1173 19.1647C10.1626 19.5121 10.2112 19.8596 10.2618 20.1975C10.3302 20.655 10.7315 20.9999 11.1954 20.9999H12.8046C13.2684 20.9999 13.6698 20.655 13.7382 20.1974C13.7888 19.8591 13.8374 19.5116 13.8826 19.1647C13.8882 19.1226 13.9166 19.0885 13.9553 19.0779C14.5362 18.9177 15.0968 18.6854 15.6213 18.3875C15.6565 18.3676 15.701 18.3714 15.7346 18.3971C16.0124 18.6108 16.2926 18.8223 16.5674 19.0256C16.9393 19.3006 17.467 19.2608 17.795 18.9328L18.9329 17.7949C19.2608 17.467 19.3008 16.9393 19.0257 16.5674C18.8219 16.292 18.6105 16.0118 18.3972 15.7345C18.3714 15.701 18.3676 15.6565 18.3876 15.6212C18.6856 15.0965 18.9179 14.536 19.0779 13.9552C19.0886 13.9166 19.1227 13.8881 19.1647 13.8826C19.5115 13.8374 19.859 13.7887 20.1976 13.7381C20.655 13.6697 21 13.2683 21 12.8045V11.1953C21 10.7315 20.655 10.3301 20.1976 10.2617ZM20.1595 12.8047C20.1595 12.8557 20.1224 12.8996 20.0732 12.907C19.7399 12.9569 19.3977 13.0047 19.0561 13.0493C18.6779 13.0986 18.3684 13.3666 18.2677 13.7321C18.126 14.246 17.9205 14.742 17.6568 15.2062C17.4694 15.5363 17.4985 15.9449 17.7311 16.2473C17.9412 16.5204 18.1494 16.7963 18.35 17.0674C18.3796 17.1074 18.3747 17.1648 18.3386 17.2008L17.2007 18.3387C17.1647 18.3748 17.1073 18.3796 17.0674 18.3501C16.7968 18.1499 16.5208 17.9416 16.2472 17.7312C15.9449 17.4985 15.5363 17.4694 15.2062 17.6568C14.742 17.9205 14.246 18.1261 13.732 18.2678C13.3666 18.3685 13.0986 18.6779 13.0492 19.0562C13.0047 19.398 12.9568 19.7402 12.9069 20.0733C12.8996 20.1225 12.8556 20.1596 12.8046 20.1596H11.1954C11.1444 20.1596 11.1004 20.1225 11.0931 20.0733C11.0433 19.7405 10.9954 19.3983 10.9508 19.0562C10.9015 18.678 10.6334 18.3685 10.268 18.2678C9.75399 18.1261 9.25797 17.9206 8.79376 17.6568C8.64902 17.5747 8.48917 17.5341 8.32984 17.5341C8.12579 17.5341 7.92255 17.6006 7.75285 17.7312C7.47923 17.9417 7.20325 18.1499 6.93266 18.3502C6.89265 18.3797 6.83538 18.3748 6.79934 18.3388L5.66144 17.2009C5.62537 17.1648 5.62045 17.1075 5.65005 17.0676C5.85047 16.7966 6.05867 16.5207 6.26894 16.2474C6.5015 15.945 6.53068 15.5365 6.34326 15.2064C6.07948 14.742 5.87399 14.246 5.73235 13.7322C5.63163 13.3668 5.32218 13.0988 4.94397 13.0494C4.60253 13.0049 4.26028 12.957 3.92676 12.9071C3.87757 12.8997 3.84052 12.8558 3.84052 12.8048V11.1955C3.84052 11.1446 3.87757 11.1006 3.92676 11.0932C4.26028 11.0433 4.6025 10.9954 4.9439 10.9509C5.32215 10.9016 5.63159 10.6336 5.73231 10.2681C5.87389 9.7543 6.07945 9.25828 6.34323 8.7939C6.53068 8.46382 6.5015 8.05523 6.26894 7.75296C6.05923 7.48029 5.851 7.20438 5.65005 6.93276C5.62052 6.89279 5.6254 6.83541 5.66144 6.79941L6.79927 5.66151C6.83527 5.62544 6.89261 5.62062 6.93259 5.65012C7.20318 5.8503 7.47916 6.05853 7.75278 6.26905C8.05513 6.50157 8.46368 6.53078 8.7938 6.3433C9.25797 6.07962 9.75399 5.87406 10.268 5.73238C10.6334 5.63166 10.9015 5.32222 10.9508 4.94397C10.9954 4.60186 11.0433 4.25965 11.0931 3.92679C11.1004 3.87768 11.1445 3.84059 11.1954 3.84059H12.8046C12.8556 3.84059 12.8996 3.87764 12.907 3.92683C12.9568 4.25958 13.0046 4.60176 13.0493 4.94397C13.0986 5.32222 13.3666 5.63166 13.7321 5.73238C14.246 5.87406 14.742 6.07962 15.2063 6.3433C15.5364 6.53068 15.9449 6.50157 16.2472 6.26898C16.5208 6.05849 16.7968 5.85026 17.0674 5.65008C17.1074 5.62048 17.1647 5.62537 17.2008 5.66147L18.3386 6.79934C18.3747 6.83541 18.3796 6.89275 18.35 6.93269C18.1495 7.20389 17.9412 7.47979 17.7311 7.75289C17.4986 8.05527 17.4694 8.46385 17.6569 8.79394C17.9206 9.25818 18.1261 9.75416 18.2678 10.2681C18.3685 10.6336 18.678 10.9015 19.0561 10.9508C19.3977 10.9954 19.74 11.0433 20.0734 11.0931C20.1225 11.1005 20.1596 11.1445 20.1596 11.1955V12.8047H20.1595Z" fill="black" fill-opacity="0.6"/>
    <path d="M12.0001 8.09296C9.8457 8.09296 8.09302 9.84564 8.09302 12C8.09302 14.1544 9.8457 15.9071 12.0001 15.9071C14.1545 15.9071 15.9071 14.1544 15.9071 12C15.9071 9.84564 14.1545 8.09296 12.0001 8.09296ZM12.0001 15.0665C10.3092 15.0665 8.93357 13.6909 8.93357 12C8.93357 10.3091 10.3092 8.93351 12.0001 8.93351C13.691 8.93351 15.0666 10.3091 15.0666 12C15.0666 13.6909 13.691 15.0665 12.0001 15.0665Z" fill="black" fill-opacity="0.6"/>
</svg>
