<svg width="32" height="32" viewBox="0 0 32 32" fill="none" xmlns="http://www.w3.org/2000/svg">
    <g filter="url(#filter0_d)">
        <circle cx="16" cy="15" r="12" fill="#24202C"/>
        <circle cx="16" cy="15" r="11.95" stroke="#454545" stroke-width="0.1"/>
    </g>
    <path d="M24.1976 13.2617C23.8591 13.2111 23.5116 13.1624 23.1647 13.1172C23.1227 13.1118 23.0886 13.0833 23.078 13.0447C22.9179 12.4638 22.6857 11.9032 22.3877 11.3786C22.3676 11.3434 22.3714 11.299 22.3973 11.2653C22.6106 10.9881 22.822 10.7079 23.0257 10.4325C23.3008 10.0606 23.2609 9.53289 22.9329 9.20492L21.795 8.06705C21.4671 7.73911 20.9394 7.69918 20.5675 7.97431C20.2926 8.17758 20.0124 8.38901 19.7346 8.60273C19.7011 8.6286 19.6566 8.63236 19.6213 8.61236C19.0968 8.31438 18.5362 8.0821 17.9553 7.922C17.9167 7.91141 17.8882 7.87731 17.8827 7.83519C17.8374 7.48785 17.7888 7.14037 17.7382 6.80244C17.6698 6.34495 17.2684 6 16.8046 6H15.1954C14.7315 6 14.3302 6.34495 14.2619 6.80241C14.2113 7.1404 14.1627 7.48785 14.1174 7.83527C14.1118 7.87735 14.0834 7.91138 14.0447 7.922C13.4638 8.08217 12.9032 8.31441 12.3787 8.61236C12.3435 8.63236 12.299 8.6285 12.2654 8.60273C11.9876 8.38901 11.7074 8.17758 11.4325 7.97427C11.0605 7.69918 10.5329 7.73918 10.205 8.06709L9.06709 9.20496C8.73911 9.53296 8.69921 10.0607 8.97434 10.4325C9.17839 10.7084 9.38982 10.9885 9.60276 11.2653C9.6286 11.2989 9.6324 11.3434 9.6124 11.3786C9.31434 11.9033 9.0821 12.4639 8.92203 13.0447C8.91145 13.0832 8.87735 13.1117 8.8353 13.1173C8.48866 13.1625 8.14117 13.2111 7.80248 13.2618C7.34495 13.3302 7 13.7316 7 14.1954V15.8046C7 16.2684 7.34495 16.6698 7.80241 16.7382C8.1411 16.7889 8.48862 16.8375 8.83527 16.8827C8.87735 16.8882 8.91138 16.9167 8.922 16.9553C9.08206 17.5362 9.31434 18.0967 9.61236 18.6214C9.63236 18.6566 9.62857 18.7011 9.60273 18.7347C9.38926 19.0121 9.17783 19.2923 8.97431 19.5675C8.69921 19.9394 8.73908 20.4671 9.06705 20.7951L10.2049 21.9329C10.5329 22.2609 11.0607 22.3009 11.4325 22.0257C11.7073 21.8224 11.9875 21.611 12.2653 21.3973C12.2989 21.3714 12.3434 21.3677 12.3786 21.3876C12.9032 21.6856 13.4637 21.9178 14.0447 22.078C14.0833 22.0886 14.1118 22.1227 14.1173 22.1647C14.1626 22.5121 14.2112 22.8596 14.2618 23.1975C14.3302 23.655 14.7315 23.9999 15.1954 23.9999H16.8046C17.2684 23.9999 17.6698 23.655 17.7382 23.1974C17.7888 22.8591 17.8374 22.5116 17.8826 22.1647C17.8882 22.1226 17.9166 22.0885 17.9553 22.0779C18.5362 21.9177 19.0968 21.6854 19.6213 21.3875C19.6565 21.3676 19.701 21.3714 19.7346 21.3971C20.0124 21.6108 20.2926 21.8223 20.5674 22.0256C20.9393 22.3006 21.467 22.2608 21.795 21.9328L22.9329 20.7949C23.2608 20.467 23.3008 19.9393 23.0257 19.5674C22.8219 19.292 22.6105 19.0118 22.3972 18.7345C22.3714 18.701 22.3676 18.6565 22.3876 18.6212C22.6856 18.0965 22.9179 17.536 23.0779 16.9552C23.0886 16.9166 23.1227 16.8881 23.1647 16.8826C23.5115 16.8374 23.859 16.7887 24.1976 16.7381C24.655 16.6697 25 16.2683 25 15.8045V14.1953C25 13.7315 24.655 13.3301 24.1976 13.2617ZM24.1595 15.8047C24.1595 15.8557 24.1224 15.8996 24.0732 15.907C23.7399 15.9569 23.3977 16.0047 23.0561 16.0493C22.6779 16.0986 22.3684 16.3666 22.2677 16.7321C22.126 17.246 21.9205 17.742 21.6568 18.2062C21.4694 18.5363 21.4985 18.9449 21.7311 19.2473C21.9412 19.5204 22.1494 19.7963 22.35 20.0674C22.3796 20.1074 22.3747 20.1648 22.3386 20.2008L21.2007 21.3387C21.1647 21.3748 21.1073 21.3796 21.0674 21.3501C20.7968 21.1499 20.5208 20.9416 20.2472 20.7312C19.9449 20.4985 19.5363 20.4694 19.2062 20.6568C18.742 20.9205 18.246 21.1261 17.732 21.2678C17.3666 21.3685 17.0986 21.6779 17.0492 22.0562C17.0047 22.398 16.9568 22.7402 16.9069 23.0733C16.8996 23.1225 16.8556 23.1596 16.8046 23.1596H15.1954C15.1444 23.1596 15.1004 23.1225 15.0931 23.0733C15.0433 22.7405 14.9954 22.3983 14.9508 22.0562C14.9015 21.678 14.6334 21.3685 14.268 21.2678C13.754 21.1261 13.258 20.9206 12.7938 20.6568C12.649 20.5747 12.4892 20.5341 12.3298 20.5341C12.1258 20.5341 11.9226 20.6006 11.7529 20.7312C11.4792 20.9417 11.2033 21.1499 10.9327 21.3502C10.8926 21.3797 10.8354 21.3748 10.7993 21.3388L9.66144 20.2009C9.62537 20.1648 9.62045 20.1075 9.65005 20.0676C9.85047 19.7966 10.0587 19.5207 10.2689 19.2474C10.5015 18.945 10.5307 18.5365 10.3433 18.2064C10.0795 17.742 9.87399 17.246 9.73235 16.7322C9.63163 16.3668 9.32218 16.0988 8.94397 16.0494C8.60253 16.0049 8.26028 15.957 7.92676 15.9071C7.87757 15.8997 7.84052 15.8558 7.84052 15.8048V14.1955C7.84052 14.1446 7.87757 14.1006 7.92676 14.0932C8.26028 14.0433 8.6025 13.9954 8.9439 13.9509C9.32215 13.9016 9.63159 13.6336 9.73231 13.2681C9.87389 12.7543 10.0794 12.2583 10.3432 11.7939C10.5307 11.4638 10.5015 11.0552 10.2689 10.753C10.0592 10.4803 9.851 10.2044 9.65005 9.93276C9.62052 9.89279 9.6254 9.83541 9.66144 9.79941L10.7993 8.66151C10.8353 8.62544 10.8926 8.62062 10.9326 8.65012C11.2032 8.8503 11.4792 9.05853 11.7528 9.26905C12.0551 9.50157 12.4637 9.53078 12.7938 9.3433C13.258 9.07962 13.754 8.87406 14.268 8.73238C14.6334 8.63166 14.9015 8.32222 14.9508 7.94397C14.9954 7.60186 15.0433 7.25965 15.0931 6.92679C15.1004 6.87768 15.1445 6.84059 15.1954 6.84059H16.8046C16.8556 6.84059 16.8996 6.87764 16.907 6.92683C16.9568 7.25958 17.0046 7.60176 17.0493 7.94397C17.0986 8.32222 17.3666 8.63166 17.7321 8.73238C18.246 8.87406 18.742 9.07962 19.2063 9.3433C19.5364 9.53068 19.9449 9.50157 20.2472 9.26898C20.5208 9.05849 20.7968 8.85026 21.0674 8.65008C21.1074 8.62048 21.1647 8.62537 21.2008 8.66147L22.3386 9.79934C22.3747 9.83541 22.3796 9.89275 22.35 9.93269C22.1495 10.2039 21.9412 10.4798 21.7311 10.7529C21.4986 11.0553 21.4694 11.4639 21.6569 11.7939C21.9206 12.2582 22.1261 12.7542 22.2678 13.2681C22.3685 13.6336 22.678 13.9015 23.0561 13.9508C23.3977 13.9954 23.74 14.0433 24.0734 14.0931C24.1225 14.1005 24.1596 14.1445 24.1596 14.1955V15.8047H24.1595Z" fill="white" fill-opacity="0.6"/>
    <path d="M16.0001 11.093C13.8457 11.093 12.093 12.8456 12.093 15C12.093 17.1544 13.8457 18.9071 16.0001 18.9071C18.1545 18.9071 19.9071 17.1544 19.9071 15C19.9071 12.8456 18.1545 11.093 16.0001 11.093ZM16.0001 18.0665C14.3092 18.0665 12.9336 16.6909 12.9336 15C12.9336 13.3091 14.3092 11.9335 16.0001 11.9335C17.691 11.9335 19.0666 13.3091 19.0666 15C19.0666 16.6909 17.691 18.0665 16.0001 18.0665Z" fill="white" fill-opacity="0.6"/>
    <defs>
        <filter id="filter0_d" x="0" y="0" width="32" height="32" filterUnits="userSpaceOnUse" color-interpolation-filters="sRGB">
            <feFlood flood-opacity="0" result="BackgroundImageFix"/>
            <feColorMatrix in="SourceAlpha" type="matrix" values="0 0 0 0 0 0 0 0 0 0 0 0 0 0 0 0 0 0 127 0"/>
            <feOffset dy="1"/>
            <feGaussianBlur stdDeviation="2"/>
            <feColorMatrix type="matrix" values="0 0 0 0 0 0 0 0 0 0 0 0 0 0 0 0 0 0 0.14 0"/>
            <feBlend mode="normal" in2="BackgroundImageFix" result="effect1_dropShadow"/>
            <feBlend mode="normal" in="SourceGraphic" in2="effect1_dropShadow" result="shape"/>
        </filter>
    </defs>
</svg>
