<svg width="12" height="12" viewBox="0 0 12 12" fill="none" xmlns="http://www.w3.org/2000/svg">
    <path d="M5.99707 0.166687C2.77416 0.166687 0.166656 2.7771 0.166656 6.00002C0.166656 9.22294 2.77416 11.8334 5.99707 11.8334C9.21999 11.8334 11.8333 9.22294 11.8333 6.00002C11.8333 2.7771 9.21999 0.166687 5.99707 0.166687ZM5.99999 10.6667C3.42166 10.6667 1.33332 8.57835 1.33332 6.00002C1.33332 3.42169 3.42166 1.33335 5.99999 1.33335C8.57832 1.33335 10.6667 3.42169 10.6667 6.00002C10.6667 8.57835 8.57832 10.6667 5.99999 10.6667ZM8.04166 5.41669C8.52582 5.41669 8.91666 5.02585 8.91666 4.54169C8.91666 4.05752 8.52582 3.66669 8.04166 3.66669C7.55749 3.66669 7.16666 4.05752 7.16666 4.54169C7.16666 5.02585 7.55749 5.41669 8.04166 5.41669ZM3.95832 5.41669C4.44249 5.41669 4.83332 5.02585 4.83332 4.54169C4.83332 4.05752 4.44249 3.66669 3.95832 3.66669C3.47416 3.66669 3.08332 4.05752 3.08332 4.54169C3.08332 5.02585 3.47416 5.41669 3.95832 5.41669ZM5.99999 9.20835C7.35916 9.20835 8.51124 8.3596 8.97791 7.16669H3.02207C3.48874 8.3596 4.64082 9.20835 5.99999 9.20835Z" fill="#A5A5A5"/>
</svg>
