<svg width="20" height="13" viewBox="0 0 20 13" fill="none" xmlns="http://www.w3.org/2000/svg">
    <path d="M0.9 12V12.1H1H19H19.1V12V9.83929C19.1 9.37572 18.8576 8.97838 18.4844 8.6478C18.1118 8.31767 17.601 8.04638 17.041 7.83125C15.9212 7.40098 14.5794 7.18571 13.6818 7.18571C12.6951 7.18571 11.1749 7.44514 10 7.96581C8.82508 7.44514 7.30493 7.18571 6.31818 7.18571C5.42055 7.18571 4.07883 7.40098 2.95896 7.83125C2.39904 8.04638 1.88815 8.31767 1.51555 8.6478C1.14244 8.97838 0.9 9.37572 0.9 9.83929V12ZM2.32727 10.7214V9.83929C2.32727 9.82555 2.33816 9.78861 2.39468 9.72731C2.44814 9.66934 2.53032 9.60273 2.64042 9.53083C2.86 9.38743 3.17709 9.2317 3.55934 9.08773C4.32373 8.79984 5.33443 8.56429 6.31818 8.56429C7.30193 8.56429 8.31263 8.79984 9.07703 9.08773C9.45928 9.2317 9.77636 9.38743 9.99595 9.53083C10.106 9.60273 10.1882 9.66934 10.2417 9.72731C10.2982 9.78861 10.3091 9.82555 10.3091 9.83929V10.7214H2.32727ZM17.6727 10.7214H11.7364V9.83929C11.7364 9.49966 11.6007 9.19722 11.3859 8.93031C12.0738 8.71973 12.8877 8.56429 13.6818 8.56429C14.6656 8.56429 15.6763 8.79984 16.4407 9.08773C16.8229 9.2317 17.14 9.38743 17.3596 9.53083C17.4697 9.60273 17.5519 9.66934 17.6053 9.72731C17.6618 9.78861 17.6727 9.82555 17.6727 9.83929V10.7214ZM6.31818 6.6C7.95283 6.6 9.28182 5.32534 9.28182 3.75C9.28182 2.17466 7.95283 0.9 6.31818 0.9C4.68772 0.9 3.35455 2.17457 3.35455 3.75C3.35455 5.32543 4.68772 6.6 6.31818 6.6ZM6.31818 2.27857C7.1709 2.27857 7.85455 2.94079 7.85455 3.75C7.85455 4.55921 7.1709 5.22143 6.31818 5.22143C5.46546 5.22143 4.78182 4.55921 4.78182 3.75C4.78182 2.94079 5.46546 2.27857 6.31818 2.27857ZM13.6818 6.6C15.3165 6.6 16.6455 5.32534 16.6455 3.75C16.6455 2.17466 15.3165 0.9 13.6818 0.9C12.0514 0.9 10.7182 2.17457 10.7182 3.75C10.7182 5.32543 12.0514 6.6 13.6818 6.6ZM13.6818 2.27857C14.5345 2.27857 15.2182 2.94079 15.2182 3.75C15.2182 4.55921 14.5345 5.22143 13.6818 5.22143C12.8291 5.22143 12.1455 4.55921 12.1455 3.75C12.1455 2.94079 12.8291 2.27857 13.6818 2.27857Z" fill="#FCFCFC" stroke="black" stroke-width="0.2"/>
</svg>