{
    "asset" : {
        "generator" : "Khronos glTF Blender I/O v3.2.43",
        "version" : "2.0"
    },
    "scene" : 0,
    "scenes" : [
        {
            "name" : "Scene",
            "nodes" : [
                2,
                6,
                9
            ]
        }
    ],
    "nodes" : [
        {
            "name" : "04.obj.cleaner.materialmerger.gles"
        },
        {
            "children" : [
                0
            ],
            "name" : "RootNode (model correction matrix)"
        },
        {
            "children" : [
                1
            ],
            "name" : "RootNode (gltf orientation matrix)",
            "rotation" : [
                -0.7071068286895752,
                0,
                0,
                0.7071067094802856
            ]
        },
        {
            "mesh" : 0,
            "name" : "Mesh_0.001",
            "rotation" : [
                0,
                0,
                0.7071068286895752,
                0.7071068286895752
            ],
            "scale" : [
                5.699999809265137,
                5.699999809265137,
                5.699999809265137
            ],
            "translation" : [
                0,
                -45.42943572998047,
                -6.103846317273565e-06
            ]
        },
        {
            "children" : [
                3
            ],
            "name" : "04.obj.cleaner.materialmerger.gles.001"
        },
        {
            "children" : [
                4
            ],
            "name" : "RootNode (model correction matrix).001"
        },
        {
            "children" : [
                5
            ],
            "name" : "RootNode (gltf orientation matrix).001",
            "rotation" : [
                -0.7071068286895752,
                0,
                0,
                0.7071067094802856
            ]
        },
        {
            "name" : "Dicecube.obj.cleaner.materialmerger.gles"
        },
        {
            "children" : [
                7
            ],
            "name" : "RootNode (model correction matrix).002"
        },
        {
            "children" : [
                8
            ],
            "name" : "RootNode (gltf orientation matrix).002",
            "rotation" : [
                -0.7071068286895752,
                0,
                0,
                0.7071067094802856
            ]
        }
    ],
    "materials" : [
        {
            "doubleSided" : true,
            "name" : "initialShadingGroup",
            "normalTexture" : {
                "index" : 0
            },
            "occlusionTexture" : {
                "index" : 1
            },
            "pbrMetallicRoughness" : {
                "baseColorTexture" : {
                    "index" : 2
                },
                "metallicFactor": 0.25,
                "metallicRoughnessTexture" : {
                    "index" : 1
                },
                "roughnessFactor" : 0.8500000238418579
            }
        }
    ],
    "meshes" : [
        {
            "name" : "Mesh_0.001",
            "primitives" : [
                {
                    "attributes" : {
                        "POSITION" : 0,
                        "NORMAL" : 1,
                        "TEXCOORD_0" : 2
                    },
                    "indices" : 3,
                    "material" : 0
                }
            ]
        }
    ],
    "textures" : [
        {
            "sampler" : 0,
            "source" : 0
        },
        {
            "sampler" : 0,
            "source" : 1
        },
        {
            "sampler" : 0,
            "source" : 2
        }
    ],
    "images" : [
        {
            "mimeType" : "image/png",
            "name" : "initialShadingGroup_normal",
            "uri" : "initialShadingGroup_normal.png"
        },
        {
            "mimeType" : "image/png",
            "name" : "initialShadingGroup_metallicRoughness",
            "uri" : "initialShadingGroup_metallicRoughness.png"
        },
        {
            "mimeType" : "image/png",
            "name" : "initialShadingGroup_baseColor",
            "uri" : "initialShadingGroup_baseColor.png"
        }
    ],
    "accessors" : [
        {
            "bufferView" : 0,
            "componentType" : 5126,
            "count" : 5187,
            "max" : [
                9.493101119995117,
                1.5001100301742554,
                1.5004760026931763
            ],
            "min" : [
                6.492565155029297,
                -1.5005940198898315,
                -1.5007359981536865
            ],
            "type" : "VEC3"
        },
        {
            "bufferView" : 1,
            "componentType" : 5126,
            "count" : 5187,
            "type" : "VEC3"
        },
        {
            "bufferView" : 2,
            "componentType" : 5126,
            "count" : 5187,
            "type" : "VEC2"
        },
        {
            "bufferView" : 3,
            "componentType" : 5123,
            "count" : 23088,
            "type" : "SCALAR"
        }
    ],
    "bufferViews" : [
        {
            "buffer" : 0,
            "byteLength" : 62244,
            "byteOffset" : 0
        },
        {
            "buffer" : 0,
            "byteLength" : 62244,
            "byteOffset" : 62244
        },
        {
            "buffer" : 0,
            "byteLength" : 41496,
            "byteOffset" : 124488
        },
        {
            "buffer" : 0,
            "byteLength" : 46176,
            "byteOffset" : 165984
        }
    ],
    "samplers" : [
        {
            "magFilter" : 9729,
            "minFilter" : 9987
        }
    ],
    "buffers" : [
        {
            "byteLength" : 212160,
            "uri" : "scene.bin"
        }
    ]
}
